<?xml version="1.0" encoding="UTF-8"?>
<svg version="1.1" xmlns="http://www.w3.org/2000/svg" width="24" height="24">
<path d="M0 0 C12.53104884 -0.7630544 12.53104884 -0.7630544 16.0078125 1.04296875 C18.56698884 3.65578052 19.90410885 6.15615792 20.3125 9.75 C19.92220973 13.80901885 18.50412622 15.83301684 16 19 C13.29120665 20.35439668 10.99066732 20.06501451 8 20 C8 19.34 8 18.68 8 18 C10.31 17.34 12.62 16.68 15 16 C15.19573608 14.56359829 15.38127816 13.12580496 15.5625 11.6875 C15.71912109 10.48673828 15.71912109 10.48673828 15.87890625 9.26171875 C16.14755178 6.83182884 16.14755178 6.83182884 15 4 C10.89776415 2.98459888 10.89776415 2.98459888 7 4 C7 4.99 7 5.98 7 7 C4.69 7 2.38 7 0 7 C0 4.69 0 2.38 0 0 Z " fill="#939393" transform="translate(2,2)"/>
<path d="M0 0 C0.99 0 1.98 0 3 0 C3 1.65 3 3.3 3 5 C4.32 5 5.64 5 7 5 C7 5.66 7 6.32 7 7 C4.69 7 2.38 7 0 7 C0 4.69 0 2.38 0 0 Z " fill="#939393" transform="translate(10,6)"/>
</svg>
