<?xml version="1.0" encoding="UTF-8"?>
<svg version="1.1" xmlns="http://www.w3.org/2000/svg" width="21" height="22">
<path d="M0 0 C1.32 0 2.64 0 4 0 C4 0.66 4 1.32 4 2 C3.34 2 2.68 2 2 2 C2.77030122 5.48809191 2.77030122 5.48809191 4 9 C4.99 9.33 5.98 9.66 7 10 C10.31460705 8.29107501 10.31460705 8.29107501 10.6875 4.875 C10.8421875 3.451875 10.8421875 3.451875 11 2 C10.01 1.67 9.02 1.34 8 1 C8 0.67 8 0.34 8 0 C9.65 0 11.3 0 13 0 C13.23340154 3.03422003 13.35798961 5.97288195 13 9 C11 11.1875 11 11.1875 9 13 C8.66551741 16.167832 8.66551741 16.167832 9 19 C10.65 19 12.3 19 14 19 C13.649375 18.071875 13.29875 17.14375 12.9375 16.1875 C12 13 12 13 13 10 C15.875 9.375 15.875 9.375 19 9 C21 11 21 11 21.125 14.125 C21.08375 15.07375 21.0425 16.0225 21 17 C20.01 17.33 19.02 17.66 18 18 C16.79117904 20.00016466 16.79117904 20.00016466 16 22 C14.54257537 22.08096803 13.08387193 22.13917774 11.625 22.1875 C10.81289062 22.22230469 10.00078125 22.25710937 9.1640625 22.29296875 C8.44992187 22.19628906 7.73578125 22.09960938 7 22 C5 19 5 19 4.625 16 C4.34063264 12.88728424 4.34063264 12.88728424 1.9765625 11.63671875 C-0 10 -0 10 -0.390625 7.51953125 C-0.34421875 6.62621094 -0.2978125 5.73289062 -0.25 4.8125 C-0.21390625 3.91144531 -0.1778125 3.01039062 -0.140625 2.08203125 C-0.07101562 1.05142578 -0.07101562 1.05142578 0 0 Z " fill="#0077B5" transform="translate(0,0)"/>
</svg>
